<svg width="311" height="80" viewBox="0 0 311 80" fill="none" xmlns="http://www.w3.org/2000/svg">
<path d="M24.2514 9.29779C21.4446 9.85617 17.9102 11.8803 15.8658 14.1139C11.4651 18.8602 10.4256 24.8978 12.5047 33.3434C13.3709 36.8683 13.3709 37.636 12.47 40.079C11.5691 42.5219 9.87117 44.4763 7.13374 46.2213C5.02003 47.5474 1.41632 49.0132 0.0995796 49.083C-0.246931 49.083 0.342137 49.432 1.38167 49.8159C2.73306 50.3045 4.1884 50.5139 6.40607 50.5488C10.0444 50.5837 12.6086 49.9206 15.8658 48.1407C17.0439 47.5125 18.0142 47.0938 18.0142 47.2683C18.0142 47.9313 23.6969 56.0978 26.3997 59.3434C28.0283 61.2629 31.5627 64.9971 34.2655 67.6146L39.2206 72.4307L40.3294 71.6629C41.7155 70.6508 49.9624 62.4146 52.1801 59.7971L53.878 57.7729L55.9917 58.436C60.4617 59.8669 65.3475 60.181 70.5451 59.3783C73.7677 58.8897 79 57.4938 79 57.1099C79 57.0052 77.7179 56.6213 76.1586 56.2374C71.8619 55.2951 66.0752 53.3407 62.4368 51.6307L59.2143 50.13L60.0459 48.7689C65.0703 40.777 68.2235 29.33 67.2186 22.7689C66.1445 15.7193 60.8775 10.3448 53.8433 9.19309C49.4427 8.4602 44.0718 10.0656 40.9532 13.1018L39.4632 14.5676L37.9385 13.1367C34.3348 9.78638 29.1718 8.3206 24.2514 9.29779ZM43.3787 22.7689C42.7897 27.6199 43.0322 33.3434 44.0024 36.8334C47.121 47.9662 55.1947 54.283 69.2977 56.5166C71.2728 56.8656 72.9707 57.1797 73.0747 57.2844C73.4212 57.5985 69.367 57.3891 65.8673 56.9005C52.2147 54.9112 43.3787 47.5125 40.2601 35.4723L39.6018 32.9246L39.0127 34.9837C38.1464 37.7756 37.9039 45.628 38.4583 52.9568C38.7008 56.2025 38.8048 58.9246 38.7355 58.9944C38.6662 59.0642 36.7604 55.7139 34.4734 51.4911C32.2211 47.2683 30.2806 43.8132 30.142 43.8132C30.0034 43.8132 29.6223 45.9421 29.2758 48.5246C28.8946 51.2119 28.4788 53.2011 28.2709 53.1313C27.5086 52.887 23.0732 46.1864 21.2714 42.5219L19.3309 38.6132L18.2914 40.7421C16.94 43.4293 13.8907 46.5703 11.4305 47.7568C9.35141 48.7689 6.57932 49.3971 4.36166 49.3622C3.01027 49.3273 3.04492 49.3273 5.05468 48.8736C12.8165 47.1636 16.9746 41.5099 17.1132 32.5407C17.1479 29.1555 16.94 29.4696 19.7814 28.981C21.0288 28.8065 21.0288 28.8065 21.2714 30.2374C21.8951 34.0763 25.672 43.6736 26.0879 42.4172C26.2611 41.8938 27.7165 32.0521 27.7165 31.4938C27.7165 30.6911 28.5827 32.0521 31.043 36.6589C33.8843 41.9985 34.3002 42.2776 34.3002 39.0669C34.3002 36.5542 35.4783 32.2615 37.0376 29.0159C38.1464 26.7126 43.3094 19.0347 43.7599 19.0347C43.8292 19.0347 43.6559 20.7099 43.3787 22.7689Z" fill="url(#paint0_linear_1022_365)"/>
<path d="M109.322 67C109.235 67 109.192 66.9567 109.192 66.87V58.615C109.192 58.5283 109.235 58.485 109.322 58.485H110.167C110.253 58.485 110.297 58.5283 110.297 58.615V65.999H113.885C113.971 65.999 114.015 66.0423 114.015 66.129V66.87C114.015 66.9567 113.971 67 113.885 67H109.322ZM117.307 67.156C116.475 67.156 115.834 66.961 115.383 66.571C114.941 66.181 114.72 65.6047 114.72 64.842V63.022C114.72 62.1987 114.941 61.5747 115.383 61.15C115.825 60.7167 116.466 60.5 117.307 60.5C118.148 60.5 118.785 60.7123 119.218 61.137C119.66 61.553 119.881 62.1597 119.881 62.957V63.971C119.881 64.0577 119.838 64.101 119.751 64.101H115.825V64.517C115.825 65.0977 115.946 65.5223 116.189 65.791C116.432 66.051 116.826 66.181 117.372 66.181C117.779 66.181 118.091 66.116 118.308 65.986C118.533 65.8473 118.646 65.648 118.646 65.388C118.646 65.2927 118.694 65.245 118.789 65.245H119.634C119.703 65.245 119.747 65.284 119.764 65.362C119.799 65.9167 119.595 66.3543 119.153 66.675C118.711 66.9957 118.096 67.156 117.307 67.156ZM115.825 63.152H118.776V63.074C118.776 62.528 118.655 62.125 118.412 61.865C118.169 61.605 117.805 61.475 117.32 61.475C116.817 61.475 116.44 61.6093 116.189 61.878C115.946 62.1467 115.825 62.5497 115.825 63.087V63.152ZM123.561 67.156C123.119 67.156 122.764 67.0823 122.495 66.935C122.235 66.779 122.044 66.5493 121.923 66.246C121.81 65.9427 121.754 65.5657 121.754 65.115V61.605H120.753C120.666 61.605 120.623 61.5617 120.623 61.475V60.786C120.623 60.6993 120.666 60.656 120.753 60.656H121.78L121.923 59.096C121.932 59.0093 121.979 58.966 122.066 58.966H122.716C122.803 58.966 122.846 59.0093 122.846 59.096L122.859 60.656H124.796C124.883 60.656 124.926 60.6993 124.926 60.786V61.475C124.926 61.5617 124.883 61.605 124.796 61.605H122.859V65.089C122.859 65.4963 122.928 65.7823 123.067 65.947C123.214 66.1117 123.461 66.194 123.808 66.194C123.981 66.194 124.155 66.1767 124.328 66.142C124.501 66.0987 124.653 66.0467 124.783 65.986C124.826 65.9687 124.861 65.9687 124.887 65.986C124.922 66.0033 124.939 66.0337 124.939 66.077V66.792C124.939 66.8613 124.904 66.909 124.835 66.935C124.679 66.9957 124.497 67.0477 124.289 67.091C124.081 67.1343 123.838 67.156 123.561 67.156ZM125.98 61.423C125.893 61.423 125.85 61.3797 125.85 61.293V58.251C125.85 58.1643 125.893 58.121 125.98 58.121H126.825C126.912 58.121 126.955 58.1643 126.955 58.251V61.293C126.955 61.3797 126.912 61.423 126.825 61.423H125.98ZM130.464 67.156C129.684 67.156 129.099 66.987 128.709 66.649C128.319 66.3023 128.124 65.7867 128.124 65.102C128.124 65.024 128.167 64.985 128.254 64.985H129.112C129.19 64.985 129.229 65.0197 129.229 65.089C129.229 65.479 129.324 65.7607 129.515 65.934C129.714 66.1073 130.035 66.194 130.477 66.194C130.901 66.194 131.222 66.1247 131.439 65.986C131.655 65.8387 131.764 65.6307 131.764 65.362C131.764 65.1627 131.703 64.998 131.582 64.868C131.46 64.7293 131.27 64.6037 131.01 64.491L129.528 63.88C129.051 63.6807 128.713 63.4553 128.514 63.204C128.314 62.9527 128.215 62.6277 128.215 62.229C128.215 61.657 128.397 61.228 128.761 60.942C129.125 60.6473 129.666 60.5 130.386 60.5C131.122 60.5 131.694 60.656 132.102 60.968C132.509 61.2713 132.713 61.7047 132.713 62.268C132.713 62.346 132.669 62.385 132.583 62.385H131.725C131.69 62.385 131.66 62.372 131.634 62.346C131.608 62.3113 131.595 62.255 131.595 62.177C131.595 61.9517 131.491 61.7783 131.283 61.657C131.075 61.527 130.789 61.462 130.425 61.462C130.052 61.462 129.775 61.527 129.593 61.657C129.411 61.7783 129.32 61.969 129.32 62.229C129.32 62.4197 129.367 62.5627 129.463 62.658C129.567 62.7533 129.77 62.866 130.074 62.996L131.556 63.62C132.015 63.8107 132.349 64.036 132.557 64.296C132.765 64.556 132.869 64.8897 132.869 65.297C132.869 65.895 132.661 66.3543 132.245 66.675C131.829 66.9957 131.235 67.156 130.464 67.156ZM136.969 67C136.883 67 136.839 66.9567 136.839 66.87V62.242C136.839 62.008 136.831 61.7653 136.813 61.514C136.805 61.254 136.783 61.02 136.748 60.812C136.731 60.708 136.779 60.656 136.891 60.656H137.671C137.715 60.656 137.745 60.6603 137.762 60.669C137.78 60.6777 137.793 60.7037 137.801 60.747C137.819 60.877 137.84 61.0157 137.866 61.163C137.892 61.3103 137.91 61.462 137.918 61.618C138.308 61.228 138.677 60.9463 139.023 60.773C139.37 60.591 139.743 60.5 140.141 60.5C140.583 60.5 140.939 60.604 141.207 60.812C141.485 61.0113 141.68 61.3103 141.792 61.709C142.208 61.2843 142.594 60.9767 142.949 60.786C143.305 60.5953 143.69 60.5 144.106 60.5C144.687 60.5 145.125 60.682 145.419 61.046C145.723 61.41 145.874 61.9473 145.874 62.658V66.87C145.874 66.9567 145.831 67 145.744 67H144.899C144.813 67 144.769 66.9567 144.769 66.87V62.723C144.769 62.307 144.691 61.995 144.535 61.787C144.388 61.579 144.154 61.475 143.833 61.475C143.547 61.475 143.253 61.566 142.949 61.748C142.655 61.9213 142.308 62.1987 141.909 62.58V66.87C141.909 66.9567 141.866 67 141.779 67H140.934C140.848 67 140.804 66.9567 140.804 66.87V62.723C140.804 62.307 140.726 61.995 140.57 61.787C140.423 61.579 140.189 61.475 139.868 61.475C139.582 61.475 139.288 61.566 138.984 61.748C138.69 61.9213 138.343 62.1987 137.944 62.58V66.87C137.944 66.9567 137.901 67 137.814 67H136.969ZM151.335 67C151.283 67 151.248 66.9827 151.231 66.948C151.213 66.9133 151.196 66.87 151.179 66.818C151.17 66.7487 151.148 66.6013 151.114 66.376C151.088 66.142 151.07 65.934 151.062 65.752L151.023 65.258V62.671C151.023 62.2377 150.936 61.93 150.763 61.748C150.589 61.566 150.286 61.475 149.853 61.475C149.073 61.475 148.683 61.7437 148.683 62.281C148.683 62.3677 148.644 62.411 148.566 62.411H147.708C147.621 62.411 147.573 62.3287 147.565 62.164C147.521 61.67 147.712 61.2713 148.137 60.968C148.57 60.656 149.155 60.5 149.892 60.5C150.646 60.5 151.205 60.6777 151.569 61.033C151.941 61.3883 152.128 61.9257 152.128 62.645V65.427C152.128 65.7303 152.136 66.0033 152.154 66.246C152.171 66.48 152.193 66.6837 152.219 66.857C152.236 66.9523 152.193 67 152.089 67H151.335ZM148.852 67.156C148.349 67.156 147.963 67.0043 147.695 66.701C147.435 66.3977 147.305 65.9557 147.305 65.375C147.305 64.9243 147.391 64.556 147.565 64.27C147.747 63.984 148.033 63.763 148.423 63.607C148.821 63.451 149.35 63.347 150.009 63.295L151.231 63.191V64.036L149.983 64.14C149.385 64.192 148.973 64.3003 148.748 64.465C148.522 64.6297 148.41 64.907 148.41 65.297C148.41 65.5917 148.47 65.8127 148.592 65.96C148.713 66.1073 148.895 66.181 149.138 66.181C149.424 66.181 149.723 66.0857 150.035 65.895C150.347 65.6957 150.758 65.3317 151.27 64.803V65.778C150.966 66.1073 150.68 66.376 150.412 66.584C150.152 66.7833 149.896 66.9263 149.645 67.013C149.393 67.1083 149.129 67.156 148.852 67.156ZM154.045 67C153.958 67 153.915 66.9567 153.915 66.87V58.251C153.915 58.1643 153.958 58.121 154.045 58.121H154.89C154.976 58.121 155.02 58.1643 155.02 58.251V61.618C155.02 61.8173 155.02 62.0167 155.02 62.216C155.02 62.4153 155.02 62.6147 155.02 62.814C155.02 63.0133 155.015 63.2127 155.007 63.412H155.02C155.176 63.2387 155.332 63.0653 155.488 62.892C155.652 62.7187 155.817 62.5453 155.982 62.372L157.516 60.721C157.55 60.6777 157.602 60.656 157.672 60.656H158.816C158.876 60.656 158.911 60.6733 158.92 60.708C158.937 60.734 158.924 60.7687 158.881 60.812L156.723 63.022L159.076 66.844C159.102 66.8873 159.106 66.9263 159.089 66.961C159.071 66.987 159.037 67 158.985 67H157.984C157.923 67 157.871 66.9697 157.828 66.909L155.93 63.841L155.02 64.764V66.87C155.02 66.9567 154.976 67 154.89 67H154.045ZM162.363 67.156C161.531 67.156 160.89 66.961 160.439 66.571C159.997 66.181 159.776 65.6047 159.776 64.842V63.022C159.776 62.1987 159.997 61.5747 160.439 61.15C160.881 60.7167 161.522 60.5 162.363 60.5C163.204 60.5 163.841 60.7123 164.274 61.137C164.716 61.553 164.937 62.1597 164.937 62.957V63.971C164.937 64.0577 164.894 64.101 164.807 64.101H160.881V64.517C160.881 65.0977 161.002 65.5223 161.245 65.791C161.488 66.051 161.882 66.181 162.428 66.181C162.835 66.181 163.147 66.116 163.364 65.986C163.589 65.8473 163.702 65.648 163.702 65.388C163.702 65.2927 163.75 65.245 163.845 65.245H164.69C164.759 65.245 164.803 65.284 164.82 65.362C164.855 65.9167 164.651 66.3543 164.209 66.675C163.767 66.9957 163.152 67.156 162.363 67.156ZM160.881 63.152H163.832V63.074C163.832 62.528 163.711 62.125 163.468 61.865C163.225 61.605 162.861 61.475 162.376 61.475C161.873 61.475 161.496 61.6093 161.245 61.878C161.002 62.1467 160.881 62.5497 160.881 63.087V63.152ZM173.389 67C173.302 67 173.259 66.9567 173.259 66.87V62.723C173.259 62.2983 173.172 61.9863 172.999 61.787C172.825 61.579 172.561 61.475 172.206 61.475C171.859 61.475 171.508 61.5833 171.153 61.8C170.797 62.008 170.412 62.3373 169.996 62.788L170.009 61.774C170.295 61.4707 170.568 61.228 170.828 61.046C171.088 60.8553 171.348 60.7167 171.608 60.63C171.876 60.5433 172.158 60.5 172.453 60.5C173.077 60.5 173.549 60.682 173.87 61.046C174.199 61.41 174.364 61.9517 174.364 62.671V66.87C174.364 66.9567 174.32 67 174.234 67H173.389ZM169.216 67C169.129 67 169.086 66.9567 169.086 66.87V58.251C169.086 58.1643 169.129 58.121 169.216 58.121H170.061C170.147 58.121 170.191 58.1643 170.191 58.251V66.87C170.191 66.9567 170.147 67 170.061 67H169.216ZM178.562 67.156C177.73 67.156 177.089 66.961 176.638 66.571C176.196 66.181 175.975 65.6047 175.975 64.842V63.022C175.975 62.1987 176.196 61.5747 176.638 61.15C177.08 60.7167 177.722 60.5 178.562 60.5C179.403 60.5 180.04 60.7123 180.473 61.137C180.915 61.553 181.136 62.1597 181.136 62.957V63.971C181.136 64.0577 181.093 64.101 181.006 64.101H177.08V64.517C177.08 65.0977 177.202 65.5223 177.444 65.791C177.687 66.051 178.081 66.181 178.627 66.181C179.035 66.181 179.347 66.116 179.563 65.986C179.789 65.8473 179.901 65.648 179.901 65.388C179.901 65.2927 179.949 65.245 180.044 65.245H180.889C180.959 65.245 181.002 65.284 181.019 65.362C181.054 65.9167 180.85 66.3543 180.408 66.675C179.966 66.9957 179.351 67.156 178.562 67.156ZM177.08 63.152H180.031V63.074C180.031 62.528 179.91 62.125 179.667 61.865C179.425 61.605 179.061 61.475 178.575 61.475C178.073 61.475 177.696 61.6093 177.444 61.878C177.202 62.1467 177.08 62.5497 177.08 63.087V63.152ZM186.399 67C186.347 67 186.313 66.9827 186.295 66.948C186.278 66.9133 186.261 66.87 186.243 66.818C186.235 66.7487 186.213 66.6013 186.178 66.376C186.152 66.142 186.135 65.934 186.126 65.752L186.087 65.258V62.671C186.087 62.2377 186.001 61.93 185.827 61.748C185.654 61.566 185.351 61.475 184.917 61.475C184.137 61.475 183.747 61.7437 183.747 62.281C183.747 62.3677 183.708 62.411 183.63 62.411H182.772C182.686 62.411 182.638 62.3287 182.629 62.164C182.586 61.67 182.777 61.2713 183.201 60.968C183.635 60.656 184.22 60.5 184.956 60.5C185.71 60.5 186.269 60.6777 186.633 61.033C187.006 61.3883 187.192 61.9257 187.192 62.645V65.427C187.192 65.7303 187.201 66.0033 187.218 66.246C187.236 66.48 187.257 66.6837 187.283 66.857C187.301 66.9523 187.257 67 187.153 67H186.399ZM183.916 67.156C183.414 67.156 183.028 67.0043 182.759 66.701C182.499 66.3977 182.369 65.9557 182.369 65.375C182.369 64.9243 182.456 64.556 182.629 64.27C182.811 63.984 183.097 63.763 183.487 63.607C183.886 63.451 184.415 63.347 185.073 63.295L186.295 63.191V64.036L185.047 64.14C184.449 64.192 184.038 64.3003 183.812 64.465C183.587 64.6297 183.474 64.907 183.474 65.297C183.474 65.5917 183.535 65.8127 183.656 65.96C183.778 66.1073 183.96 66.181 184.202 66.181C184.488 66.181 184.787 66.0857 185.099 65.895C185.411 65.6957 185.823 65.3317 186.334 64.803V65.778C186.031 66.1073 185.745 66.376 185.476 66.584C185.216 66.7833 184.961 66.9263 184.709 67.013C184.458 67.1083 184.194 67.156 183.916 67.156ZM189.109 67C189.023 67 188.979 66.9567 188.979 66.87V58.251C188.979 58.1643 189.023 58.121 189.109 58.121H189.954C190.041 58.121 190.084 58.1643 190.084 58.251V66.87C190.084 66.9567 190.041 67 189.954 67H189.109ZM194.097 67.156C193.655 67.156 193.299 67.0823 193.031 66.935C192.771 66.779 192.58 66.5493 192.459 66.246C192.346 65.9427 192.29 65.5657 192.29 65.115V61.605H191.289C191.202 61.605 191.159 61.5617 191.159 61.475V60.786C191.159 60.6993 191.202 60.656 191.289 60.656H192.316L192.459 59.096C192.467 59.0093 192.515 58.966 192.602 58.966H193.252C193.338 58.966 193.382 59.0093 193.382 59.096L193.395 60.656H195.332C195.418 60.656 195.462 60.6993 195.462 60.786V61.475C195.462 61.5617 195.418 61.605 195.332 61.605H193.395V65.089C193.395 65.4963 193.464 65.7823 193.603 65.947C193.75 66.1117 193.997 66.194 194.344 66.194C194.517 66.194 194.69 66.1767 194.864 66.142C195.037 66.0987 195.189 66.0467 195.319 65.986C195.362 65.9687 195.397 65.9687 195.423 65.986C195.457 66.0033 195.475 66.0337 195.475 66.077V66.792C195.475 66.8613 195.44 66.909 195.371 66.935C195.215 66.9957 195.033 67.0477 194.825 67.091C194.617 67.1343 194.374 67.156 194.097 67.156ZM201.014 67C200.927 67 200.884 66.9567 200.884 66.87V62.723C200.884 62.2983 200.797 61.9863 200.624 61.787C200.45 61.579 200.186 61.475 199.831 61.475C199.484 61.475 199.133 61.5833 198.778 61.8C198.422 62.008 198.037 62.3373 197.621 62.788L197.634 61.774C197.92 61.4707 198.193 61.228 198.453 61.046C198.713 60.8553 198.973 60.7167 199.233 60.63C199.501 60.5433 199.783 60.5 200.078 60.5C200.702 60.5 201.174 60.682 201.495 61.046C201.824 61.41 201.989 61.9517 201.989 62.671V66.87C201.989 66.9567 201.945 67 201.859 67H201.014ZM196.841 67C196.754 67 196.711 66.9567 196.711 66.87V58.251C196.711 58.1643 196.754 58.121 196.841 58.121H197.686C197.772 58.121 197.816 58.1643 197.816 58.251V66.87C197.816 66.9567 197.772 67 197.686 67H196.841ZM210.013 67C209.961 67 209.926 66.9827 209.909 66.948C209.892 66.9133 209.874 66.87 209.857 66.818C209.848 66.7487 209.827 66.6013 209.792 66.376C209.766 66.142 209.749 65.934 209.74 65.752L209.701 65.258V62.671C209.701 62.2377 209.614 61.93 209.441 61.748C209.268 61.566 208.964 61.475 208.531 61.475C207.751 61.475 207.361 61.7437 207.361 62.281C207.361 62.3677 207.322 62.411 207.244 62.411H206.386C206.299 62.411 206.252 62.3287 206.243 62.164C206.2 61.67 206.39 61.2713 206.815 60.968C207.248 60.656 207.833 60.5 208.57 60.5C209.324 60.5 209.883 60.6777 210.247 61.033C210.62 61.3883 210.806 61.9257 210.806 62.645V65.427C210.806 65.7303 210.815 66.0033 210.832 66.246C210.849 66.48 210.871 66.6837 210.897 66.857C210.914 66.9523 210.871 67 210.767 67H210.013ZM207.53 67.156C207.027 67.156 206.642 67.0043 206.373 66.701C206.113 66.3977 205.983 65.9557 205.983 65.375C205.983 64.9243 206.07 64.556 206.243 64.27C206.425 63.984 206.711 63.763 207.101 63.607C207.5 63.451 208.028 63.347 208.687 63.295L209.909 63.191V64.036L208.661 64.14C208.063 64.192 207.651 64.3003 207.426 64.465C207.201 64.6297 207.088 64.907 207.088 65.297C207.088 65.5917 207.149 65.8127 207.27 65.96C207.391 66.1073 207.573 66.181 207.816 66.181C208.102 66.181 208.401 66.0857 208.713 65.895C209.025 65.6957 209.437 65.3317 209.948 64.803V65.778C209.645 66.1073 209.359 66.376 209.09 66.584C208.83 66.7833 208.574 66.9263 208.323 67.013C208.072 67.1083 207.807 67.156 207.53 67.156ZM218.004 67.156C217.675 67.156 217.333 67.1127 216.977 67.026C216.622 66.9393 216.336 66.8223 216.119 66.675L216.08 65.739C216.332 65.8777 216.609 65.986 216.912 66.064C217.216 66.142 217.502 66.181 217.77 66.181C218.273 66.181 218.641 66.0337 218.875 65.739C219.109 65.4443 219.226 65.0023 219.226 64.413V62.983C219.226 62.463 219.135 62.0817 218.953 61.839C218.771 61.5963 218.503 61.475 218.147 61.475C217.844 61.475 217.536 61.566 217.224 61.748C216.921 61.9213 216.518 62.2333 216.015 62.684V61.644C216.31 61.3753 216.583 61.1587 216.834 60.994C217.094 60.8207 217.346 60.695 217.588 60.617C217.84 60.539 218.104 60.5 218.381 60.5C219.023 60.5 219.508 60.6993 219.837 61.098C220.167 61.4967 220.331 62.1033 220.331 62.918V64.543C220.331 65.3837 220.132 66.0293 219.733 66.48C219.335 66.9307 218.758 67.156 218.004 67.156ZM215.287 69.405C215.201 69.405 215.157 69.3617 215.157 69.275V62.125C215.157 61.9257 215.149 61.7047 215.131 61.462C215.114 61.2193 215.092 61.0027 215.066 60.812C215.058 60.708 215.101 60.656 215.196 60.656H215.989C216.076 60.656 216.124 60.6993 216.132 60.786C216.15 60.8467 216.167 60.9333 216.184 61.046C216.202 61.1587 216.215 61.2713 216.223 61.384C216.232 61.488 216.232 61.5617 216.223 61.605L216.262 62.255V69.275C216.262 69.3617 216.219 69.405 216.132 69.405H215.287ZM222.105 67C222.018 67 221.975 66.9567 221.975 66.87V62.203C221.975 61.9603 221.966 61.7263 221.949 61.501C221.94 61.267 221.918 61.033 221.884 60.799C221.866 60.7037 221.91 60.656 222.014 60.656H222.807C222.85 60.656 222.88 60.6647 222.898 60.682C222.924 60.6993 222.941 60.7297 222.95 60.773C222.984 60.9377 223.01 61.1283 223.028 61.345C223.045 61.553 223.054 61.7307 223.054 61.878L223.08 62.567V66.87C223.08 66.9567 223.036 67 222.95 67H222.105ZM222.937 62.957L222.911 61.891C223.093 61.6223 223.301 61.384 223.535 61.176C223.777 60.968 224.02 60.8033 224.263 60.682C224.514 60.5607 224.744 60.5 224.952 60.5C225.108 60.5 225.225 60.513 225.303 60.539C225.346 60.5477 225.372 60.565 225.381 60.591C225.398 60.6083 225.411 60.6343 225.42 60.669C225.437 60.851 225.441 61.0373 225.433 61.228C225.433 61.4187 225.42 61.6007 225.394 61.774C225.385 61.8173 225.363 61.8477 225.329 61.865C225.303 61.8823 225.268 61.8867 225.225 61.878C225.155 61.8607 225.082 61.8477 225.004 61.839C224.926 61.8303 224.843 61.826 224.757 61.826C224.54 61.826 224.323 61.8737 224.107 61.969C223.89 62.0643 223.682 62.1987 223.483 62.372C223.283 62.5367 223.101 62.7317 222.937 62.957ZM226.573 67C226.487 67 226.443 66.9567 226.443 66.87V60.786C226.443 60.6993 226.487 60.656 226.573 60.656H227.418C227.505 60.656 227.548 60.6993 227.548 60.786V66.87C227.548 66.9567 227.505 67 227.418 67H226.573ZM227.002 59.59C226.751 59.59 226.569 59.525 226.456 59.395C226.344 59.2563 226.287 59.083 226.287 58.875V58.745C226.287 58.537 226.344 58.368 226.456 58.238C226.569 58.0993 226.751 58.03 227.002 58.03C227.254 58.03 227.436 58.0993 227.548 58.238C227.661 58.368 227.717 58.537 227.717 58.745V58.875C227.717 59.083 227.661 59.2563 227.548 59.395C227.436 59.525 227.254 59.59 227.002 59.59ZM231.847 67.156C230.972 67.156 230.304 66.9437 229.845 66.519C229.394 66.0943 229.169 65.4487 229.169 64.582V63.074C229.169 62.2073 229.394 61.5617 229.845 61.137C230.296 60.7123 230.963 60.5 231.847 60.5C232.722 60.5 233.385 60.7123 233.836 61.137C234.295 61.5617 234.525 62.2073 234.525 63.074V64.582C234.525 65.4487 234.3 66.0943 233.849 66.519C233.398 66.9437 232.731 67.156 231.847 67.156ZM231.847 66.181C232.402 66.181 232.8 66.0423 233.043 65.765C233.294 65.479 233.42 65.05 233.42 64.478V63.178C233.42 62.606 233.294 62.1813 233.043 61.904C232.8 61.618 232.402 61.475 231.847 61.475C231.292 61.475 230.889 61.618 230.638 61.904C230.395 62.1813 230.274 62.606 230.274 63.178V64.478C230.274 65.05 230.395 65.479 230.638 65.765C230.889 66.0423 231.292 66.181 231.847 66.181ZM236.273 67C236.186 67 236.143 66.9567 236.143 66.87V62.203C236.143 61.9603 236.134 61.7263 236.117 61.501C236.108 61.267 236.086 61.033 236.052 60.799C236.034 60.7037 236.078 60.656 236.182 60.656H236.975C237.018 60.656 237.048 60.6647 237.066 60.682C237.092 60.6993 237.109 60.7297 237.118 60.773C237.152 60.9377 237.178 61.1283 237.196 61.345C237.213 61.553 237.222 61.7307 237.222 61.878L237.248 62.567V66.87C237.248 66.9567 237.204 67 237.118 67H236.273ZM237.105 62.957L237.079 61.891C237.261 61.6223 237.469 61.384 237.703 61.176C237.945 60.968 238.188 60.8033 238.431 60.682C238.682 60.5607 238.912 60.5 239.12 60.5C239.276 60.5 239.393 60.513 239.471 60.539C239.514 60.5477 239.54 60.565 239.549 60.591C239.566 60.6083 239.579 60.6343 239.588 60.669C239.605 60.851 239.609 61.0373 239.601 61.228C239.601 61.4187 239.588 61.6007 239.562 61.774C239.553 61.8173 239.531 61.8477 239.497 61.865C239.471 61.8823 239.436 61.8867 239.393 61.878C239.323 61.8607 239.25 61.8477 239.172 61.839C239.094 61.8303 239.011 61.826 238.925 61.826C238.708 61.826 238.491 61.8737 238.275 61.969C238.058 62.0643 237.85 62.1987 237.651 62.372C237.451 62.5367 237.269 62.7317 237.105 62.957ZM240.742 67C240.655 67 240.612 66.9567 240.612 66.87V60.786C240.612 60.6993 240.655 60.656 240.742 60.656H241.587C241.673 60.656 241.717 60.6993 241.717 60.786V66.87C241.717 66.9567 241.673 67 241.587 67H240.742ZM241.171 59.59C240.919 59.59 240.737 59.525 240.625 59.395C240.512 59.2563 240.456 59.083 240.456 58.875V58.745C240.456 58.537 240.512 58.368 240.625 58.238C240.737 58.0993 240.919 58.03 241.171 58.03C241.422 58.03 241.604 58.0993 241.717 58.238C241.829 58.368 241.886 58.537 241.886 58.745V58.875C241.886 59.083 241.829 59.2563 241.717 59.395C241.604 59.525 241.422 59.59 241.171 59.59ZM245.729 67.156C245.287 67.156 244.932 67.0823 244.663 66.935C244.403 66.779 244.212 66.5493 244.091 66.246C243.978 65.9427 243.922 65.5657 243.922 65.115V61.605H242.921C242.834 61.605 242.791 61.5617 242.791 61.475V60.786C242.791 60.6993 242.834 60.656 242.921 60.656H243.948L244.091 59.096C244.1 59.0093 244.147 58.966 244.234 58.966H244.884C244.971 58.966 245.014 59.0093 245.014 59.096L245.027 60.656H246.964C247.051 60.656 247.094 60.6993 247.094 60.786V61.475C247.094 61.5617 247.051 61.605 246.964 61.605H245.027V65.089C245.027 65.4963 245.096 65.7823 245.235 65.947C245.382 66.1117 245.629 66.194 245.976 66.194C246.149 66.194 246.323 66.1767 246.496 66.142C246.669 66.0987 246.821 66.0467 246.951 65.986C246.994 65.9687 247.029 65.9687 247.055 65.986C247.09 66.0033 247.107 66.0337 247.107 66.077V66.792C247.107 66.8613 247.072 66.909 247.003 66.935C246.847 66.9957 246.665 67.0477 246.457 67.091C246.249 67.1343 246.006 67.156 245.729 67.156ZM249.355 69.405C249.251 69.405 249.22 69.353 249.264 69.249L250.187 66.922L247.782 60.812C247.738 60.708 247.769 60.656 247.873 60.656H248.796C248.865 60.656 248.913 60.6907 248.939 60.76L250.109 63.906C250.213 64.1747 250.312 64.452 250.408 64.738C250.512 65.024 250.611 65.3057 250.707 65.583H250.72C250.815 65.3057 250.915 65.024 251.019 64.738C251.131 64.452 251.235 64.1747 251.331 63.906L252.501 60.76C252.527 60.6907 252.579 60.656 252.657 60.656H253.528C253.571 60.656 253.601 60.6733 253.619 60.708C253.645 60.734 253.649 60.7687 253.632 60.812L250.343 69.301C250.317 69.3703 250.269 69.405 250.2 69.405H249.355ZM259.529 67.156C259.087 67.156 258.732 67.0823 258.463 66.935C258.203 66.779 258.012 66.5493 257.891 66.246C257.778 65.9427 257.722 65.5657 257.722 65.115V61.605H256.721C256.634 61.605 256.591 61.5617 256.591 61.475V60.786C256.591 60.6993 256.634 60.656 256.721 60.656H257.748L257.891 59.096C257.9 59.0093 257.947 58.966 258.034 58.966H258.684C258.771 58.966 258.814 59.0093 258.814 59.096L258.827 60.656H260.764C260.851 60.656 260.894 60.6993 260.894 60.786V61.475C260.894 61.5617 260.851 61.605 260.764 61.605H258.827V65.089C258.827 65.4963 258.896 65.7823 259.035 65.947C259.182 66.1117 259.429 66.194 259.776 66.194C259.949 66.194 260.123 66.1767 260.296 66.142C260.469 66.0987 260.621 66.0467 260.751 65.986C260.794 65.9687 260.829 65.9687 260.855 65.986C260.89 66.0033 260.907 66.0337 260.907 66.077V66.792C260.907 66.8613 260.872 66.909 260.803 66.935C260.647 66.9957 260.465 67.0477 260.257 67.091C260.049 67.1343 259.806 67.156 259.529 67.156ZM264.487 67.156C263.612 67.156 262.944 66.9437 262.485 66.519C262.034 66.0943 261.809 65.4487 261.809 64.582V63.074C261.809 62.2073 262.034 61.5617 262.485 61.137C262.936 60.7123 263.603 60.5 264.487 60.5C265.362 60.5 266.025 60.7123 266.476 61.137C266.935 61.5617 267.165 62.2073 267.165 63.074V64.582C267.165 65.4487 266.94 66.0943 266.489 66.519C266.038 66.9437 265.371 67.156 264.487 67.156ZM264.487 66.181C265.042 66.181 265.44 66.0423 265.683 65.765C265.934 65.479 266.06 65.05 266.06 64.478V63.178C266.06 62.606 265.934 62.1813 265.683 61.904C265.44 61.618 265.042 61.475 264.487 61.475C263.932 61.475 263.529 61.618 263.278 61.904C263.035 62.1813 262.914 62.606 262.914 63.178V64.478C262.914 65.05 263.035 65.479 263.278 65.765C263.529 66.0423 263.932 66.181 264.487 66.181ZM271.123 69.561C270.109 69.561 269.376 69.4223 268.926 69.145C268.484 68.8763 268.263 68.4647 268.263 67.91C268.263 67.5547 268.345 67.247 268.51 66.987C268.683 66.7183 268.943 66.5017 269.29 66.337L270.161 66.688C269.901 66.766 269.71 66.8917 269.589 67.065C269.467 67.247 269.407 67.4593 269.407 67.702C269.407 68.0487 269.537 68.287 269.797 68.417C270.057 68.5557 270.516 68.625 271.175 68.625C271.859 68.625 272.332 68.5557 272.592 68.417C272.86 68.2783 272.995 68.0227 272.995 67.65C272.995 67.3987 272.934 67.2123 272.813 67.091C272.691 66.9697 272.492 66.9047 272.215 66.896L269.81 66.766C269.541 66.7487 269.294 66.649 269.069 66.467C268.852 66.2763 268.744 65.9817 268.744 65.583C268.744 65.401 268.77 65.2407 268.822 65.102C268.882 64.9547 268.973 64.816 269.095 64.686C269.225 64.556 269.394 64.413 269.602 64.257L270.304 64.673C270.113 64.751 269.974 64.8463 269.888 64.959C269.801 65.0717 269.758 65.2017 269.758 65.349C269.758 65.505 269.81 65.6177 269.914 65.687C270.018 65.7477 270.178 65.7867 270.395 65.804L272.553 65.934C273.064 65.9687 273.445 66.1333 273.697 66.428C273.957 66.714 274.087 67.1387 274.087 67.702C274.087 68.3607 273.848 68.833 273.372 69.119C272.904 69.4137 272.154 69.561 271.123 69.561ZM271.227 64.946C270.412 64.946 269.81 64.764 269.42 64.4C269.03 64.036 268.835 63.477 268.835 62.723C268.835 61.969 269.03 61.41 269.42 61.046C269.818 60.682 270.434 60.5 271.266 60.5C272.063 60.5 272.652 60.6863 273.034 61.059C273.424 61.423 273.619 61.982 273.619 62.736C273.619 63.49 273.424 64.049 273.034 64.413C272.652 64.7683 272.05 64.946 271.227 64.946ZM271.227 63.984C271.712 63.984 272.046 63.893 272.228 63.711C272.418 63.5203 272.514 63.1953 272.514 62.736C272.514 62.268 272.418 61.9387 272.228 61.748C272.037 61.5573 271.703 61.462 271.227 61.462C270.75 61.462 270.416 61.5573 270.226 61.748C270.035 61.9387 269.94 62.268 269.94 62.736C269.94 63.1953 270.035 63.5203 270.226 63.711C270.416 63.893 270.75 63.984 271.227 63.984ZM272.813 61.228L271.903 60.838C271.946 60.4307 271.989 60.0927 272.033 59.824C272.085 59.5467 272.132 59.3127 272.176 59.122C272.202 59.018 272.254 58.966 272.332 58.966H273.151C273.246 58.966 273.281 59.0093 273.255 59.096C273.168 59.3647 273.094 59.6507 273.034 59.954C272.973 60.2573 272.899 60.682 272.813 61.228ZM277.751 67.156C276.919 67.156 276.278 66.961 275.827 66.571C275.385 66.181 275.164 65.6047 275.164 64.842V63.022C275.164 62.1987 275.385 61.5747 275.827 61.15C276.269 60.7167 276.911 60.5 277.751 60.5C278.592 60.5 279.229 60.7123 279.662 61.137C280.104 61.553 280.325 62.1597 280.325 62.957V63.971C280.325 64.0577 280.282 64.101 280.195 64.101H276.269V64.517C276.269 65.0977 276.391 65.5223 276.633 65.791C276.876 66.051 277.27 66.181 277.816 66.181C278.224 66.181 278.536 66.116 278.752 65.986C278.978 65.8473 279.09 65.648 279.09 65.388C279.09 65.2927 279.138 65.245 279.233 65.245H280.078C280.148 65.245 280.191 65.284 280.208 65.362C280.243 65.9167 280.039 66.3543 279.597 66.675C279.155 66.9957 278.54 67.156 277.751 67.156ZM276.269 63.152H279.22V63.074C279.22 62.528 279.099 62.125 278.856 61.865C278.614 61.605 278.25 61.475 277.764 61.475C277.262 61.475 276.885 61.6093 276.633 61.878C276.391 62.1467 276.269 62.5497 276.269 63.087V63.152ZM284.006 67.156C283.564 67.156 283.208 67.0823 282.94 66.935C282.68 66.779 282.489 66.5493 282.368 66.246C282.255 65.9427 282.199 65.5657 282.199 65.115V61.605H281.198C281.111 61.605 281.068 61.5617 281.068 61.475V60.786C281.068 60.6993 281.111 60.656 281.198 60.656H282.225L282.368 59.096C282.376 59.0093 282.424 58.966 282.511 58.966H283.161C283.247 58.966 283.291 59.0093 283.291 59.096L283.304 60.656H285.241C285.327 60.656 285.371 60.6993 285.371 60.786V61.475C285.371 61.5617 285.327 61.605 285.241 61.605H283.304V65.089C283.304 65.4963 283.373 65.7823 283.512 65.947C283.659 66.1117 283.906 66.194 284.253 66.194C284.426 66.194 284.599 66.1767 284.773 66.142C284.946 66.0987 285.098 66.0467 285.228 65.986C285.271 65.9687 285.306 65.9687 285.332 65.986C285.366 66.0033 285.384 66.0337 285.384 66.077V66.792C285.384 66.8613 285.349 66.909 285.28 66.935C285.124 66.9957 284.942 67.0477 284.734 67.091C284.526 67.1343 284.283 67.156 284.006 67.156ZM290.923 67C290.836 67 290.793 66.9567 290.793 66.87V62.723C290.793 62.2983 290.706 61.9863 290.533 61.787C290.359 61.579 290.095 61.475 289.74 61.475C289.393 61.475 289.042 61.5833 288.687 61.8C288.331 62.008 287.946 62.3373 287.53 62.788L287.543 61.774C287.829 61.4707 288.102 61.228 288.362 61.046C288.622 60.8553 288.882 60.7167 289.142 60.63C289.41 60.5433 289.692 60.5 289.987 60.5C290.611 60.5 291.083 60.682 291.404 61.046C291.733 61.41 291.898 61.9517 291.898 62.671V66.87C291.898 66.9567 291.854 67 291.768 67H290.923ZM286.75 67C286.663 67 286.62 66.9567 286.62 66.87V58.251C286.62 58.1643 286.663 58.121 286.75 58.121H287.595C287.681 58.121 287.725 58.1643 287.725 58.251V66.87C287.725 66.9567 287.681 67 287.595 67H286.75ZM296.096 67.156C295.264 67.156 294.623 66.961 294.172 66.571C293.73 66.181 293.509 65.6047 293.509 64.842V63.022C293.509 62.1987 293.73 61.5747 294.172 61.15C294.614 60.7167 295.256 60.5 296.096 60.5C296.937 60.5 297.574 60.7123 298.007 61.137C298.449 61.553 298.67 62.1597 298.67 62.957V63.971C298.67 64.0577 298.627 64.101 298.54 64.101H294.614V64.517C294.614 65.0977 294.736 65.5223 294.978 65.791C295.221 66.051 295.615 66.181 296.161 66.181C296.569 66.181 296.881 66.116 297.097 65.986C297.323 65.8473 297.435 65.648 297.435 65.388C297.435 65.2927 297.483 65.245 297.578 65.245H298.423C298.493 65.245 298.536 65.284 298.553 65.362C298.588 65.9167 298.384 66.3543 297.942 66.675C297.5 66.9957 296.885 67.156 296.096 67.156ZM294.614 63.152H297.565V63.074C297.565 62.528 297.444 62.125 297.201 61.865C296.959 61.605 296.595 61.475 296.109 61.475C295.607 61.475 295.23 61.6093 294.978 61.878C294.736 62.1467 294.614 62.5497 294.614 63.087V63.152ZM300.385 67C300.298 67 300.255 66.9567 300.255 66.87V62.203C300.255 61.9603 300.246 61.7263 300.229 61.501C300.22 61.267 300.198 61.033 300.164 60.799C300.146 60.7037 300.19 60.656 300.294 60.656H301.087C301.13 60.656 301.16 60.6647 301.178 60.682C301.204 60.6993 301.221 60.7297 301.23 60.773C301.264 60.9377 301.29 61.1283 301.308 61.345C301.325 61.553 301.334 61.7307 301.334 61.878L301.36 62.567V66.87C301.36 66.9567 301.316 67 301.23 67H300.385ZM301.217 62.957L301.191 61.891C301.373 61.6223 301.581 61.384 301.815 61.176C302.057 60.968 302.3 60.8033 302.543 60.682C302.794 60.5607 303.024 60.5 303.232 60.5C303.388 60.5 303.505 60.513 303.583 60.539C303.626 60.5477 303.652 60.565 303.661 60.591C303.678 60.6083 303.691 60.6343 303.7 60.669C303.717 60.851 303.721 61.0373 303.713 61.228C303.713 61.4187 303.7 61.6007 303.674 61.774C303.665 61.8173 303.643 61.8477 303.609 61.865C303.583 61.8823 303.548 61.8867 303.505 61.878C303.435 61.8607 303.362 61.8477 303.284 61.839C303.206 61.8303 303.123 61.826 303.037 61.826C302.82 61.826 302.603 61.8737 302.387 61.969C302.17 62.0643 301.962 62.1987 301.763 62.372C301.563 62.5367 301.381 62.7317 301.217 62.957Z" fill="url(#paint1_linear_1022_365)"/>
<path d="M134.624 14.8105C133.04 16.5537 131.844 18.2912 131.035 20.0229C130.237 21.7547 129.292 24.6201 128.198 28.6191L125.242 39.3857L125.583 40.7188L127.685 42.5986H119.892L122.131 40.7188L119.106 29.7642L116.167 40.4795L119.106 44H110.373L110.032 43.5386H118.166L115.603 40.582L118.833 28.8926L118.269 26.8589L114.765 39.6592L115.039 40.7188L117.038 42.5986H109.228L111.553 40.7188L106.579 22.8257L104.016 20.6724H112.373L110.032 22.8257L113.945 36.9077L114.543 34.8398L111.245 23.082L112.8 21.6978L113.193 21.9712L111.775 23.2358L114.765 33.9854L118.423 20.6724H120.029L124.472 36.771L125.019 34.8398L121.089 20.6724H121.567L125.242 33.9854L126.848 28.209C127.851 24.5859 128.352 22.2275 128.352 21.1338C128.352 19.9147 127.782 18.9577 126.643 18.2627C127.976 17.8411 129.406 17.2658 130.932 16.5366C132.459 15.8075 133.598 15.1523 134.35 14.5713L134.624 14.8105ZM135.649 16.1094C134.282 17.6133 133.154 19.3109 132.265 21.2021C131.388 23.0934 130.488 25.7367 129.565 29.1318L126.54 40.1719L129.822 44H121.055L120.661 43.5386H128.779L126.011 40.3428L129.155 28.8926C130.089 25.4974 130.984 22.8883 131.838 21.0654C132.693 19.2311 133.832 17.4823 135.256 15.8188L135.649 16.1094ZM151.771 20.6724L151.497 20.9971C150.335 22.4212 149.412 24.0562 148.729 25.9019C148.615 25.6398 148.529 25.4461 148.473 25.3208C147.846 23.9536 147.174 23.0706 146.456 22.6719C145.738 22.2731 144.451 22.0737 142.594 22.0737C141.739 22.0737 140.714 22.1022 139.517 22.1592V30.0205H140.611V23.0649C141.477 22.9852 142.303 22.9453 143.089 22.9453C144.536 22.9453 145.601 23.0991 146.285 23.4067C146.969 23.7144 147.578 24.3125 148.114 25.2012C147.954 25.0872 147.84 25.0018 147.772 24.9448C146.849 24.2157 146.182 23.7827 145.772 23.646C145.362 23.5093 144.553 23.4409 143.346 23.4409C142.981 23.4409 142.332 23.4637 141.397 23.5093L141.038 23.5264V30.0205H144.183L146.388 26.9956V34.3613L144.183 31.5073H139.517V41.0947H140.611V32.3105H144.32L144.764 32.7549H141.038V41.0947C143.363 41.0947 145.015 40.9295 145.994 40.5991C146.974 40.2687 147.743 39.6193 148.302 38.6509L149.207 37.0957C149.242 37.0273 149.31 36.902 149.412 36.7197C149.709 37.973 150.073 38.9756 150.506 39.7275C150.951 40.4795 151.68 41.3568 152.694 42.3594H133.536L136.134 40.377V32.7549C135.177 32.8688 134.311 33.165 133.536 33.6436L133.297 33.2847C133.992 32.7834 134.937 32.4587 136.134 32.3105V31.5073C135.94 31.4845 135.803 31.4731 135.723 31.4731C134.561 31.4731 133.502 31.9004 132.545 32.7549C133.069 30.932 134.265 30.0205 136.134 30.0205V22.7231L133.536 20.6724H151.771ZM152.591 21.8687L152.472 22.0225C151.082 23.891 150.153 25.4575 149.686 26.7222L149.395 26.3633C150.159 24.5973 151.144 22.9795 152.352 21.5098L152.591 21.8687ZM147.567 27.5596V35.1133L147.14 34.8911V27.3374L147.567 27.5596ZM154.642 42.4619L153.753 44H135.091L134.818 43.5386H153.531L154.112 42.4619C152.472 40.9466 151.315 39.3288 150.643 37.6084L151.19 37.8135C151.816 39.2718 152.876 40.7301 154.369 42.1885L154.642 42.4619ZM154.853 20.6724H163.022L160.612 23.0137V41.2827H160.749L161.364 41.334H161.518V23.1846L163.364 21.3218L163.603 21.6978L161.945 23.3896V41.334C162.458 41.3796 162.948 41.4023 163.415 41.4023C165.226 41.4023 166.594 41.0036 167.517 40.2061C168.451 39.3971 169.077 38.0698 169.396 36.2241C170.467 39.3345 171.567 41.4593 172.695 42.5986H154.853L157.211 40.6675V22.8428L154.853 20.6724ZM174.37 42.4619L173.6 44H155.759L155.331 43.5386H173.412L173.908 42.4619C172.655 40.9238 171.652 39.2091 170.9 37.3179L170.832 37.1299L171.379 37.335L171.498 37.6255C172.262 39.3117 173.173 40.8669 174.233 42.291L174.37 42.4619ZM173.863 20.6724H182.032L179.622 23.0137V41.2827H179.759L180.374 41.334H180.528V23.1846L182.373 21.3218L182.613 21.6978L180.955 23.3896V41.334C181.468 41.3796 181.958 41.4023 182.425 41.4023C184.236 41.4023 185.603 41.0036 186.526 40.2061C187.461 39.3971 188.087 38.0698 188.406 36.2241C189.477 39.3345 190.577 41.4593 191.705 42.5986H173.863L176.221 40.6675V22.8428L173.863 20.6724ZM193.379 42.4619L192.61 44H174.768L174.341 43.5386H192.422L192.918 42.4619C191.665 40.9238 190.662 39.2091 189.91 37.3179L189.842 37.1299L190.389 37.335L190.508 37.6255C191.272 39.3117 192.183 40.8669 193.243 42.291L193.379 42.4619ZM192.873 20.6724H200.973L198.683 22.9966V40.7871L200.836 42.5986H192.873L195.248 40.6333V22.8086L192.873 20.6724ZM201.742 21.6465L199.999 23.3726V40.7871L202.87 44H193.983L193.556 43.5386H201.862L199.52 40.958V23.2188L201.452 21.3047L201.742 21.6465ZM222.734 21.2705L219.539 27.5596C219.334 25.7708 218.77 24.4036 217.847 23.458C216.935 22.5124 215.728 22.0396 214.224 22.0396C212.082 22.0396 210.413 22.8713 209.216 24.5347C208.031 26.1981 207.439 28.528 207.439 31.5244C207.439 38.1211 210.139 41.4194 215.54 41.4194H218.291V32.5498H213.984C213.05 32.5498 212.378 32.4985 211.968 32.396C211.569 32.2935 211.182 32.0713 210.806 31.7295V31.3022C211.216 31.6099 211.626 31.8149 212.036 31.9175C212.446 32.0086 213.113 32.0542 214.036 32.0542H218.291V31.1313H213.54H212.771C211.073 31.1313 210.225 30.5161 210.225 29.2856C210.225 28.8071 210.367 28.397 210.652 28.0552C210.937 27.7134 211.279 27.5425 211.677 27.5425C211.973 27.5425 212.23 27.6507 212.446 27.8672C212.674 28.0837 212.788 28.34 212.788 28.6362C212.788 29.1375 212.606 29.4281 212.241 29.5078L211.831 29.5933C211.694 29.6274 211.626 29.6844 211.626 29.7642C211.626 29.9123 211.814 29.9863 212.19 29.9863H212.771H224.05L221.692 32.2935V40.7188L223.879 42.5986H215.147H213.42C211.973 42.5986 210.777 42.422 209.832 42.0688C208.886 41.7157 207.929 41.089 206.96 40.189C204.67 38.0926 203.525 35.2842 203.525 31.7637C203.525 28.1292 204.608 25.2923 206.772 23.2529C208.664 21.4642 210.908 20.5698 213.506 20.5698C214.668 20.5698 216.001 20.7749 217.505 21.1851C219.043 21.6066 220.057 21.8174 220.547 21.8174C221.265 21.8174 221.994 21.6351 222.734 21.2705ZM223.76 22.3472L220.837 28.0894L220.427 27.9014L223.367 22.1421L223.76 22.3472ZM218.291 24.9448L217.983 24.7227C216.685 23.7998 215.5 23.3384 214.429 23.3384C213.13 23.3384 212.008 23.7998 211.062 24.7227C210.378 25.4062 209.883 26.3006 209.575 27.4058C209.279 28.5109 209.131 29.9692 209.131 31.7808C209.131 34.0822 209.359 35.8424 209.814 37.0615C210.27 38.2806 211.108 39.38 212.327 40.3599V40.5479C211.005 39.7617 210.054 38.6566 209.473 37.2324C208.892 35.7969 208.601 33.8543 208.601 31.4048C208.601 28.7046 209.108 26.6082 210.122 25.1157C211.136 23.6118 212.56 22.8599 214.395 22.8599C215.99 22.8599 217.288 23.5207 218.291 24.8423V24.9448ZM224.785 30.9604L223.025 32.7207V40.7358L225.862 44L219.077 43.9487L212.925 44.0171C212.537 44.0171 212.241 44.0057 212.036 43.9829C211.318 43.9032 210.595 43.5898 209.866 43.043H210.225C210.999 43.3848 212.059 43.5557 213.403 43.5557L214.258 43.5386H224.905L222.546 40.9238V32.5498L224.512 30.5674L224.785 30.9604ZM227.508 20.6724H235.541L233.216 22.9453V30.3281C233.478 30.3737 233.786 30.4079 234.139 30.4307V23.1162L236.002 21.2705L236.344 21.5781L234.584 23.3213V30.4478L235.148 30.499C236.025 30.5788 236.874 30.6187 237.694 30.6187C238.879 30.6187 239.898 30.5617 240.753 30.4478V22.5864L238.668 20.6724H246.564L244.205 22.9453V40.7529L246.273 42.5986H238.412L240.753 40.5991V33.353C239.796 33.5809 238.81 33.6948 237.796 33.6948C236.839 33.6948 235.848 33.6436 234.823 33.541L234.584 33.5239V40.7529L237.403 44H228.568L228.124 43.5386H236.463L234.139 40.9922V33.1309L234.635 33.165C236.139 33.279 237.227 33.3359 237.899 33.3359C238.993 33.3359 239.944 33.1878 240.753 32.8916V32.2764C239.682 32.4359 238.434 32.5156 237.01 32.5156C236.247 32.5156 235.689 32.4985 235.336 32.4644L233.609 32.3105C233.541 32.2992 233.41 32.2878 233.216 32.2764V40.7529L235.404 42.5986H227.508L229.798 40.5991V33.1309C228.841 33.1309 228.078 33.5068 227.508 34.2588L227.149 34.0879C227.81 33.2562 228.693 32.7948 229.798 32.7036V32.0713C228.522 32.0713 227.514 32.5555 226.773 33.5239L226.517 33.353C227.189 31.7124 228.283 30.744 229.798 30.4478V22.7573L227.508 20.6724ZM247.281 21.6294L245.538 23.3213V40.7529L248.375 44H239.505L239.078 43.5386H247.401L245.111 40.958V23.1504L247.008 21.2705L247.281 21.6294ZM267.966 20.6724C267.863 20.866 267.795 20.9971 267.761 21.0654L266.599 23.1162C266.2 23.8454 265.83 24.7568 265.488 25.8506L265.454 25.936L265.283 25.8164L265.232 25.5942C264.901 24.2954 264.428 23.3953 263.813 22.894C263.209 22.3927 262.281 22.1421 261.027 22.1421C260.515 22.1421 260.002 22.1649 259.489 22.2104H259.284V40.7358L261.301 42.5986H253.491L255.883 40.5991V23.5947L254.67 23.5776C253.497 23.5776 252.659 23.8112 252.158 24.2783C251.668 24.734 251.377 25.543 251.286 26.7051H250.842C250.967 25.3721 251.309 24.4435 251.867 23.9194C252.437 23.3953 253.371 23.1333 254.67 23.1333L255.695 23.1504H255.883V22.313C255.302 22.2446 254.75 22.2104 254.226 22.2104C252.756 22.2104 251.696 22.5124 251.047 23.1162C250.398 23.7087 250.039 24.717 249.97 26.1411H249.765C249.275 24.5575 248.518 22.7915 247.492 20.8433L247.39 20.6724H267.966ZM269.043 21.749C268.256 22.7516 267.43 24.415 266.565 26.7393L266.496 26.9102L266.12 26.5854L266.171 26.4316C267.015 24.0732 267.829 22.4326 268.615 21.5098L268.701 21.4072L269.043 21.749ZM264.48 24.415C263.602 23.8454 262.577 23.5605 261.403 23.5605C261.141 23.5605 260.868 23.5776 260.583 23.6118L260.651 40.7871L263.369 44H254.636L254.243 43.5386H262.429L260.139 40.9238V23.1162L261.062 23.0991C262.167 23.0991 262.947 23.1903 263.403 23.3726C263.87 23.5435 264.229 23.891 264.48 24.415ZM287.54 20.6724L287.266 20.9971C286.104 22.4212 285.181 24.0562 284.498 25.9019C284.384 25.6398 284.298 25.4461 284.241 25.3208C283.615 23.9536 282.943 23.0706 282.225 22.6719C281.507 22.2731 280.22 22.0737 278.362 22.0737C277.508 22.0737 276.483 22.1022 275.286 22.1592V30.0205H276.38V23.0649C277.246 22.9852 278.072 22.9453 278.858 22.9453C280.305 22.9453 281.37 23.0991 282.054 23.4067C282.737 23.7144 283.347 24.3125 283.882 25.2012C283.723 25.0872 283.609 25.0018 283.541 24.9448C282.618 24.2157 281.951 23.7827 281.541 23.646C281.131 23.5093 280.322 23.4409 279.114 23.4409C278.75 23.4409 278.1 23.4637 277.166 23.5093L276.807 23.5264V30.0205H279.952L282.156 26.9956V34.3613L279.952 31.5073H275.286V41.0947H276.38V32.3105H280.089L280.533 32.7549H276.807V41.0947C279.131 41.0947 280.783 40.9295 281.763 40.5991C282.743 40.2687 283.512 39.6193 284.07 38.6509L284.976 37.0957C285.01 37.0273 285.079 36.902 285.181 36.7197C285.477 37.973 285.842 38.9756 286.275 39.7275C286.719 40.4795 287.449 41.3568 288.463 42.3594H269.305L271.902 40.377V32.7549C270.945 32.8688 270.08 33.165 269.305 33.6436L269.066 33.2847C269.761 32.7834 270.706 32.4587 271.902 32.3105V31.5073C271.709 31.4845 271.572 31.4731 271.492 31.4731C270.33 31.4731 269.271 31.9004 268.314 32.7549C268.838 30.932 270.034 30.0205 271.902 30.0205V22.7231L269.305 20.6724H287.54ZM288.36 21.8687L288.24 22.0225C286.85 23.891 285.922 25.4575 285.455 26.7222L285.164 26.3633C285.928 24.5973 286.913 22.9795 288.121 21.5098L288.36 21.8687ZM283.336 27.5596V35.1133L282.908 34.8911V27.3374L283.336 27.5596ZM290.411 42.4619L289.522 44H270.86L270.587 43.5386H289.3L289.881 42.4619C288.24 40.9466 287.084 39.3288 286.412 37.6084L286.959 37.8135C287.585 39.2718 288.645 40.7301 290.137 42.1885L290.411 42.4619ZM310.121 20.6724C308.822 21.3446 307.985 21.9598 307.609 22.5181C307.039 23.384 306.755 24.6885 306.755 26.4316V27.5425V42.5986H303.866L295.8 26.9443V36.2241L295.783 36.9932L295.988 39.4541C296.216 40.5934 296.734 41.4365 297.543 41.9834L297.68 42.103C296.108 41.5789 295.321 39.8984 295.321 37.0615L295.339 35.4551V26.1069L294.416 24.3125V34.1562C294.416 37.278 294.621 39.3231 295.031 40.2915C295.441 41.2599 296.404 41.9663 297.919 42.4106L299.406 44H290.143L289.87 43.5386H298.432L297.543 42.5986H289.579C290.969 42.0973 291.892 41.4251 292.348 40.582C292.804 39.7389 293.031 38.292 293.031 36.2412V22.5693L290.758 20.6724H299.406L296.979 22.2959L305.251 38.4287V36.3779L298.158 22.5693L300.551 20.9458L300.876 21.2705L298.757 22.7061L305.251 35.4551V27.4741V26.5684C305.251 24.5859 305.085 23.2643 304.755 22.6035C304.436 21.9313 303.639 21.2876 302.362 20.6724H310.121ZM310.719 21.937L310.412 22.4497C309.535 22.6548 308.936 23.0365 308.617 23.5947C308.31 24.1416 308.156 25.0701 308.156 26.3804V44H304.482L304.259 43.5386H307.695V26.5513C307.695 24.9448 307.9 23.8283 308.31 23.2017C308.731 22.5636 309.535 22.1421 310.719 21.937Z" fill="url(#paint2_linear_1022_365)"/>
<line x1="93.5" y1="1.5" x2="93.5" y2="78.5" stroke="#2732EB" stroke-width="3" stroke-linecap="round"/>
<defs>
<linearGradient id="paint0_linear_1022_365" x1="49.7925" y1="63.3641" x2="-19.5143" y2="-0.716315" gradientUnits="userSpaceOnUse">
<stop stop-color="#2732EB"/>
<stop offset="1" stop-color="#D027EB" stop-opacity="0"/>
</linearGradient>
<linearGradient id="paint1_linear_1022_365" x1="206" y1="55" x2="206" y2="71" gradientUnits="userSpaceOnUse">
<stop stop-color="#2732EB"/>
<stop offset="1" stop-color="#D027EB"/>
</linearGradient>
<linearGradient id="paint2_linear_1022_365" x1="105" y1="55" x2="395" y2="9.00002" gradientUnits="userSpaceOnUse">
<stop stop-color="#2732EC"/>
<stop offset="1" stop-color="#D027EB"/>
</linearGradient>
</defs>
</svg>
